<?xml version="1.0" encoding="utf-8"?>
<!-- Generator: Adobe Illustrator 25.2.3, SVG Export Plug-In . SVG Version: 6.00 Build 0)  -->
<svg version="1.1" xmlns="http://www.w3.org/2000/svg" xmlns:xlink="http://www.w3.org/1999/xlink" x="0px" y="0px"
	 viewBox="0 0 1920 1080" style="enable-background:new 0 0 1920 1080;" xml:space="preserve">
<style type="text/css">
	.st0{fill:#B41E00;}
	.st1{fill:none;stroke:#000000;stroke-width:7;stroke-miterlimit:10;}
	.st2{fill:none;stroke:#000000;stroke-width:5;stroke-miterlimit:10;}
	.st3{fill:#FF603F;stroke:#000000;stroke-miterlimit:10;}
	.st4{fill:none;stroke:#000000;stroke-width:2;stroke-miterlimit:10;}
	.st5{fill:none;stroke:#000000;stroke-miterlimit:10;}
	.st6{opacity:0.44;fill:#B3B3B3;enable-background:new    ;}
	.st7{fill:#FF8A7F;}
</style>
<g id="Layer_2">
	<path class="st0" d="M848.9,537c-1.2,5.9-0.3,20.4,1.1,45c0.6,10.7,1.1,15.2,4,20c7.8,13,25.4,15.7,34,17
		c92.8,14.2,82.8,14.9,97,15c35.6,0.1,59.4-5.2,107-16c28.2-6.4,37.4-10.2,42.8-18.9c12.4-20.2-3.5-54.2-17.8-72.1
		C1052.3,446.7,857.1,494.9,848.9,537z"/>
</g>
<g id="Layer_1">
	<line class="st1" x1="849" y1="514.9" x2="848.6" y2="599.1"/>
	<line class="st2" x1="1134.7" y1="514.9" x2="1134.8" y2="599.1"/>
	<g>
		<g>
			<path d="M1103.3,473.8c-6.7-8.9-16.2-14.2-26.6-17.4c-11.2-3.5-23.1-5-34.7-6.5c-24.5-3.2-49.3-4.5-74-2.8
				c-24.2,1.6-48.2,6.1-70.9,14.9c-10.8,4.1-21.8,8.9-31.1,15.8c-4.8,3.5-9.2,7.5-12.7,12.4c-3.6,4.9-6,10.6-7.4,16.5
				c-3,12.3-2.5,25.3,3.6,36.6c5.3,10,14.1,17.9,23.9,23.4c10.8,6.2,22.8,9.9,34.7,13.1c12,3.3,24.3,5.8,36.7,7.7
				c24.9,3.7,50.1,4.7,75.1,2.7c25-2,49.9-6.8,73.8-14.4c10.4-3.3,20.8-7.3,29.4-14.3c4.2-3.4,7.8-7.7,10.3-12.5
				c3-5.7,4.4-11.9,5.2-18.2c1.5-12,1.1-25.1-4.9-35.9c-5.2-9.3-13.9-15.9-23-21c-4.4-2.5-9-4.7-13.6-6.8c-2.1-1-4.9-0.7-6.2,1.6
				c-1.1,2-0.7,5.1,1.6,6.2c4.5,2.1,9,4.3,13.4,6.7c2.2,1.2,4.4,2.5,6.4,4c0.9,0.6,1.9,1.3,2.8,2c0.7,0.5,0.2,0.2,0.1,0.1
				c0.2,0.2,0.4,0.4,0.7,0.5c0.6,0.4,1.1,0.9,1.6,1.4c1.8,1.6,3.5,3.2,5,5.1c0.1,0.1,1.1,1.4,0.6,0.7c0.4,0.5,0.7,1,1.1,1.5
				c0.7,1,1.3,2,1.8,3c2.5,4.6,3.7,10.2,4.1,15.4c0.2,2.9,0.2,5.8,0,8.7c-0.1,1.3-0.2,2.6-0.3,4c-0.1,0.7-0.1,1.3-0.2,2
				c0-0.2-0.2,1.4-0.1,0.9c0.1-0.4-0.1,0.8-0.1,0.9c-0.9,5.7-2.4,10.6-5.2,15.3c-0.3,0.5-0.6,1-1,1.5c-0.2,0.3-0.4,0.6-0.6,0.9
				c0.1-0.2,0.5-0.6-0.1,0.1c-0.8,1-1.7,2-2.6,2.8c-1.8,1.8-3.4,3.1-5,4.2c-2,1.4-4.1,2.7-6.3,3.8c-1,0.5-2.1,1.1-3.1,1.6
				c-0.6,0.3-1.2,0.5-1.8,0.8c-0.3,0.1-0.5,0.2-0.8,0.3c-0.4,0.2,0.4-0.2-0.3,0.1c-10.5,4.2-21.6,7.3-32.6,10
				c-5.8,1.4-11.7,2.7-17.7,3.8c-2.9,0.5-5.8,1-8.8,1.5c-2.9,0.5-5.9,0.9-8.4,1.2c-23.7,3-47.8,3.4-71.6,1.2
				c-6.1-0.6-11.7-1.2-17.5-2.1c-5.9-0.9-11.7-1.9-17.5-3.2c-11.7-2.4-23.3-5.4-34.6-9.4c-5.5-1.9-10-3.8-15.2-6.7
				c-2.5-1.4-5-3-7.4-4.7c-0.2-0.2-0.5-0.3-0.7-0.5c-0.1-0.1-0.8-0.6-0.4-0.3s-0.3-0.3-0.4-0.3c-0.3-0.2-0.6-0.5-0.9-0.7
				c-1-0.8-1.9-1.7-2.8-2.5c-0.9-0.9-1.8-1.8-2.7-2.7c-0.4-0.4-0.8-0.9-1.2-1.3c-0.2-0.2-0.4-0.5-0.6-0.7c0,0-0.9-1.1-0.4-0.5
				c-1.5-2-2.9-4.1-4.1-6.3c-0.5-1-1.1-2.1-1.5-3.2c0.3,0.7,0,0,0-0.2c-0.1-0.3-0.3-0.7-0.4-1c-0.2-0.6-0.4-1.2-0.6-1.9
				c-0.8-2.8-1.3-5.3-1.4-8c-0.2-3.1-0.1-6.1,0.3-9.2c0.2-2.2,0.8-5.3,1.6-8c0.8-2.8,1.6-5,2.8-7.4c0.6-1.2,1.2-2.3,2-3.4
				c0.3-0.5,0.7-1,1-1.5c-0.1,0.1,0.8-1.1,0.5-0.6c-0.2,0.3,0.4-0.5,0.5-0.6c1.6-2,3.5-3.8,5.4-5.5c0.5-0.5,1-0.9,1.6-1.3
				c0.2-0.2,0.5-0.4,0.7-0.6c0.6-0.5-0.4,0.3,0.2-0.1c1.1-0.8,2.2-1.6,3.4-2.4c4.5-3,9.3-5.5,14.2-7.8c5.2-2.5,9.7-4.4,15.2-6.4
				c5.5-2,11.1-3.8,16.8-5.4c5.5-1.5,11.1-2.8,16.7-3.9c2.8-0.5,5.6-1,8.5-1.5c3-0.5,5.5-0.8,8.1-1.2c23.1-2.9,46.6-2.8,69.8-0.8
				c12.5,1.1,24.5,2.5,36.8,4.7c4.8,0.9,9.7,1.9,14.4,3.3c5.1,1.5,8.3,2.8,12.8,5.5c1,0.6,2,1.2,3,1.9c0.2,0.2,1.3,1,0.8,0.5
				c0.4,0.4,0.9,0.7,1.3,1.1c0.8,0.7,1.6,1.5,2.4,2.3c0.4,0.5,0.9,0.9,1.3,1.4c0.2,0.2,0.4,0.4,0.5,0.6c0.5,0.6-0.6-0.8,0.2,0.3
				c1.4,1.9,3.9,3,6.2,1.6C1103.6,478.7,1104.8,475.8,1103.3,473.8L1103.3,473.8z"/>
		</g>
		<ellipse class="st3" cx="994.2" cy="520.7" rx="145.2" ry="65"/>
	</g>
	<g>
		<g>
			<path d="M844.8,603.7c6.3,6.9,14.3,12,22.8,15.7c9.3,4.1,19.1,6.9,29,8.9c10.1,2,20.3,3.2,30.5,4.3c10.7,1.2,21.4,2.3,32.1,3.5
				c20.7,2.2,41.3,5,62.1,4.2c19.6-0.8,39.1-4,57.9-9.6c18.8-5.6,37.2-13.5,53.9-23.9c2.1-1.3,4.2-2.7,6.3-4.2
				c2-1.4,2.9-3.9,1.6-6.2c-1.1-2-4.2-3-6.2-1.6c-7.9,5.7-16.6,10.3-25.4,14.6c-8.5,4.1-16.7,7.4-25.8,10.4c-9,3-18.2,5.4-27.6,7.3
				c-9.5,1.9-17.9,3-27.6,3.7c-9.5,0.7-19,0.7-28.5,0.2c-10.6-0.6-21.1-1.9-31.6-3c-10.6-1.2-21.2-2.3-31.9-3.5
				c-9.9-1.1-19.6-2-29.1-3.5c-9.7-1.5-19.3-3.6-28.6-6.9c-4.4-1.5-8.2-3.1-12.4-5.3c-2-1-3.9-2.2-5.8-3.4c-0.9-0.6-1.7-1.2-2.6-1.8
				c-0.8-0.6-1.1-0.8-2.1-1.7c-1.7-1.5-3.3-3-4.8-4.7c-1.6-1.8-4.7-1.7-6.4,0C843,599.1,843.2,601.9,844.8,603.7z"/>
		</g>
	</g>
	<line class="st4" x1="855.7" y1="544.8" x2="855.7" y2="580.1"/>
	<line class="st5" x1="863.8" y1="554.1" x2="863.8" y2="574.2"/>
	<line class="st5" x1="878.3" y1="564.2" x2="878.3" y2="580.1"/>
	<line class="st4" x1="872.1" y1="562.5" x2="872.1" y2="598.8"/>
	<line class="st4" x1="900" y1="574.2" x2="900" y2="589"/>
	<line class="st4" x1="932.2" y1="580.6" x2="932.2" y2="594.3"/>
	<line class="st5" x1="942.2" y1="582.4" x2="942.2" y2="589"/>
	<line class="st5" x1="970.8" y1="585.7" x2="970.8" y2="594.3"/>
	<path class="st6" d="M951.5,629.3l69,4.8l26.7-2.4l42.6-10.2l47.6-22.6c16.2,11.3,18.9,19.2,18,24.4c-4.5,25.8-106.6,39.9-194,21.6
		c-32.5-6.8-58.3-17.1-76-25.4"/>
	<path d="M1127,588"/>
	<path d="M1129.9,527.7"/>
	<path class="st7" d="M1082,505c-86.3-9.3-104.1-38.5-149-28.8c-31,6.7-64.6,29.8-63,48.8c2.2,26,70,46.8,127,43
		c66.3-4.5,126.6-42.9,123-56C1118.5,506.7,1107,507.7,1082,505z"/>
</g>
</svg>
