<?xml version="1.0" encoding="utf-8"?>
<!-- Generator: Adobe Illustrator 25.2.3, SVG Export Plug-In . SVG Version: 6.00 Build 0)  -->
<svg version="1.1" id="Layer_1" xmlns="http://www.w3.org/2000/svg" xmlns:xlink="http://www.w3.org/1999/xlink" x="0px" y="0px"
	 viewBox="0 0 1920 1080" style="enable-background:new 0 0 1920 1080;" xml:space="preserve">
<style type="text/css">
	.st0{fill:none;stroke:#000000;stroke-width:7;stroke-miterlimit:10;}
	.st1{fill:none;stroke:#000000;stroke-width:5;stroke-miterlimit:10;}
	.st2{fill:none;stroke:#000000;stroke-width:3;stroke-miterlimit:10;}
	.st3{fill:none;stroke:#000000;stroke-miterlimit:10;}
	.st4{opacity:0.44;fill:#B3B3B3;}
</style>
<g>
	<g>
		<path d="M1101.71,550.32c-8.31-4.02-17.74-5.28-26.82-6.3c-10.71-1.19-21.51-1.69-32.27-2.21c-21.99-1.05-44.01-1.55-66.03-1.22
			c-21.49,0.32-42.99,1.4-64.36,3.78c-10.32,1.15-20.62,2.58-30.85,4.41c-5.2,0.93-10.41,1.97-15.5,3.39
			c-4.37,1.22-8.86,2.69-12.77,5.04c-4.19,2.51-7.94,6.42-8.77,11.4c-0.93,5.54,2.02,9.71,6.28,12.8c3.7,2.68,8.2,4.38,12.51,5.79
			c4.83,1.58,9.8,2.7,14.8,3.62c10.78,2,21.71,3.15,32.62,4.21c10.6,1.03,21.22,1.85,31.86,2.47c21.71,1.27,43.48,1.71,65.22,1.38
			c21.5-0.33,42.99-1.42,64.4-3.36c10.65-0.96,21.31-2.06,31.9-3.59c4.94-0.72,9.88-1.56,14.72-2.8c4.07-1.05,8.23-2.38,11.86-4.53
			c4.01-2.38,7.28-6.04,8.34-10.68c1.11-4.89,0.07-9.81-3.55-13.42c-3.03-3.02-7.13-4.79-11.09-6.22c-4.32-1.56-8.82-2.65-13.31-3.6
			c-4.91-1.04-9.85-1.9-14.79-2.75c-2.31-0.39-4.96,0.61-5.54,3.14c-0.5,2.18,0.66,5.11,3.14,5.54c9.23,1.57,18.65,3.04,27.52,6.14
			c0.83,0.29,1.64,0.61,2.45,0.92c0.64,0.25-0.61-0.31-0.02,0c0.17,0.08,0.34,0.15,0.51,0.23c0.44,0.2,0.87,0.41,1.3,0.63
			c0.7,0.36,1.38,0.75,2.03,1.18c0.17,0.11,0.92,0.65,0.64,0.43c-0.44-0.34,0.34,0.31,0.43,0.39c0.23,0.21,0.45,0.43,0.67,0.66
			c0.07,0.08,0.63,0.81,0.34,0.39c-0.25-0.37,0.11,0.21,0.12,0.23c0.11,0.23,0.25,0.48,0.38,0.7c-0.06-0.11-0.15-0.64-0.09-0.2
			c0.06,0.41,0.24,0.84,0.33,1.24c-0.22-0.96-0.01,0.19-0.02,0.59c0,0.24-0.11,1.38-0.04,0.83c0.08-0.57-0.11,0.49-0.16,0.69
			c-0.09,0.37-0.2,0.73-0.32,1.09c-0.05,0.16-0.12,0.31-0.17,0.46c0.33-0.98,0.1-0.23-0.04,0c-0.22,0.35-0.42,0.71-0.64,1.06
			c-0.04,0.06-0.41,0.54-0.09,0.14c0.36-0.44-0.18,0.19-0.27,0.28c-0.86,0.94-1.23,1.21-1.99,1.69c-0.77,0.5-1.58,0.94-2.4,1.34
			c-0.33,0.16-0.66,0.31-0.99,0.46c-0.77,0.35-0.12,0.05,0.03-0.01c-0.3,0.12-0.6,0.24-0.91,0.35c-3.98,1.5-8.15,2.47-12.32,3.27
			c-9.71,1.88-19.02,2.8-29.07,3.83c-20.41,2.07-40.9,3.36-61.41,3.95c-20.87,0.6-41.76,0.47-62.62-0.39
			c-20.59-0.85-41.18-2.35-61.64-4.84c-9.38-1.14-19.44-2.63-28.81-5.56c-1.1-0.34-2.19-0.71-3.27-1.11
			c-0.52-0.19-1.03-0.38-1.54-0.59c-0.28-0.11-0.57-0.23-0.85-0.35c0.44,0.19,0.07,0.02-0.15-0.08c-1.75-0.81-3.48-1.68-5.07-2.77
			c-0.31-0.22-1.03-0.82-0.33-0.22c-0.28-0.24-0.57-0.48-0.84-0.74c-0.26-0.24-0.49-0.51-0.73-0.76c-0.09-0.09-0.45-0.47-0.01,0.02
			c0.48,0.52-0.04-0.06-0.13-0.21c-0.26-0.45-0.32-0.6-0.38-0.8c-0.14-0.49-0.06-0.13-0.04,0.01c-0.04-0.3-0.02-0.66,0-0.95
			c-0.05,0.59,0.15-0.53,0.21-0.71c0.07-0.22,0.15-0.43,0.22-0.64c-0.2,0.57-0.2,0.41,0.06-0.04c0.22-0.37,0.44-0.74,0.67-1.1
			c0.43-0.67-0.3,0.27,0.28-0.32c0.35-0.36,0.69-0.72,1.06-1.05c0.06-0.05,0.76-0.65,0.43-0.38c-0.21,0.17,0.72-0.51,0.73-0.51
			c0.76-0.5,1.55-0.96,2.36-1.37c0.41-0.21,0.83-0.41,1.25-0.61c0.25-0.11,0.5-0.23,0.75-0.34c-0.44,0.19-0.21,0.09,0.1-0.04
			c4.38-1.73,8.95-2.92,13.53-3.94c4.94-1.09,9.92-1.98,14.91-2.8c2.32-0.38,4.64-0.74,6.97-1.08c1.17-0.17,2.35-0.34,3.52-0.5
			c1.38-0.19,1.7-0.23,3.11-0.42c20.26-2.62,40.67-3.99,61.09-4.59c21.02-0.62,42.06-0.42,63.07,0.32
			c10.72,0.38,21.43,0.89,32.14,1.56c4.95,0.31,9.9,0.68,14.83,1.22c1.16,0.13,2.32,0.27,3.48,0.41c-0.03,0,0.78,0.1,0.38,0.05
			c-0.46-0.06,0.53,0.07,0.62,0.09c0.64,0.09,1.28,0.18,1.91,0.28c2.21,0.34,4.41,0.74,6.59,1.22c1.85,0.41,3.7,0.88,5.51,1.44
			c0.86,0.27,1.72,0.56,2.56,0.88c0.33,0.13,1.27,0.54,0.45,0.17c0.42,0.19,0.85,0.38,1.27,0.59c2.12,1.02,4.96,0.65,6.16-1.61
			C1104.39,554.46,1103.97,551.42,1101.71,550.32L1101.71,550.32z"/>
	</g>
</g>
<line class="st0" x1="849" y1="568.38" x2="848.61" y2="599.07"/>
<line class="st1" x1="1134.69" y1="568.38" x2="1134.83" y2="599.07"/>
<g>
	<g>
		<path d="M844.83,603.68c6.26,6.91,14.34,11.98,22.82,15.71c9.32,4.1,19.07,6.94,29.04,8.92c10.06,2,20.26,3.22,30.45,4.35
			c10.68,1.18,21.37,2.32,32.06,3.48c20.66,2.24,41.3,5.01,62.13,4.2c19.56-0.75,39.09-3.97,57.85-9.56
			c18.81-5.6,37.25-13.5,53.93-23.88c2.14-1.33,4.24-2.73,6.3-4.19c1.98-1.41,2.92-3.93,1.61-6.16c-1.14-1.95-4.17-3.03-6.16-1.61
			c-7.94,5.66-16.6,10.35-25.38,14.58c-8.49,4.09-16.73,7.41-25.83,10.43c-9.03,3-18.24,5.44-27.57,7.3
			c-9.46,1.89-17.95,3.03-27.57,3.71c-9.5,0.67-19.04,0.74-28.54,0.2c-10.56-0.6-21.07-1.88-31.58-3.02
			c-10.62-1.15-21.25-2.3-31.87-3.46c-9.86-1.07-19.59-2.05-29.06-3.55c-9.68-1.54-19.3-3.64-28.56-6.89
			c-4.39-1.55-8.19-3.13-12.36-5.34c-1.99-1.05-3.94-2.19-5.83-3.43c-0.87-0.57-1.73-1.17-2.57-1.79c-0.8-0.58-1.14-0.85-2.11-1.68
			c-1.71-1.45-3.32-3.02-4.83-4.68c-1.63-1.8-4.71-1.66-6.36,0C843.03,599.11,843.19,601.87,844.83,603.68L844.83,603.68z"/>
	</g>
</g>
<line class="st2" x1="855.72" y1="579.28" x2="855.72" y2="592.16"/>
<line class="st3" x1="863.78" y1="582.68" x2="863.78" y2="590"/>
<line class="st3" x1="878.33" y1="586.34" x2="878.33" y2="592.16"/>
<line class="st2" x1="872.11" y1="585.72" x2="872.11" y2="598.98"/>
<line class="st2" x1="899.96" y1="590" x2="899.96" y2="595.4"/>
<line class="st2" x1="932.18" y1="592.35" x2="932.18" y2="597.35"/>
<line class="st3" x1="942.15" y1="592.99" x2="942.15" y2="595.4"/>
<line class="st3" x1="970.82" y1="594.2" x2="970.82" y2="597.35"/>
<path class="st4" d="M951.55,629.35l69.03,4.75l26.72-2.38l42.59-10.15L1137.5,599c16.16,11.35,18.92,19.18,18,24.43
	c-4.51,25.75-106.63,39.87-194,21.61c-32.5-6.79-58.33-17.1-76-25.37"/>
</svg>
