<?xml version="1.0" encoding="utf-8"?>
<!-- Generator: Adobe Illustrator 25.2.3, SVG Export Plug-In . SVG Version: 6.00 Build 0)  -->
<svg version="1.1" id="Layer_1" xmlns="http://www.w3.org/2000/svg" xmlns:xlink="http://www.w3.org/1999/xlink" x="0px" y="0px"
	 viewBox="0 0 1920 1080" style="enable-background:new 0 0 1920 1080;" xml:space="preserve">
<style type="text/css">
	.st0{fill:#941400;}
	.st1{fill:none;stroke:#000000;stroke-width:7;stroke-miterlimit:10;}
	.st2{fill:none;stroke:#000000;stroke-width:5;stroke-miterlimit:10;}
	.st3{fill:none;stroke:#000000;stroke-width:3;stroke-miterlimit:10;}
	.st4{fill:none;stroke:#000000;stroke-miterlimit:10;}
	.st5{opacity:0.44;fill:#B3B3B3;enable-background:new    ;}
	.st6{fill:#FF5135;}
	.st7{fill:#FF995F;stroke:#FF995F;stroke-width:4;stroke-miterlimit:10;}
</style>
<ellipse class="st0" cx="991.7" cy="589" rx="143.1" ry="43.2"/>
<g>
	<g>
		<path d="M1101.7,550.3c-8.3-4-17.7-5.3-26.8-6.3c-10.7-1.2-21.5-1.7-32.3-2.2c-22-1-44-1.5-66-1.2c-21.5,0.3-43,1.4-64.4,3.8
			c-10.3,1.2-20.6,2.6-30.8,4.4c-5.2,0.9-10.4,2-15.5,3.4c-4.4,1.2-8.9,2.7-12.8,5c-4.2,2.5-7.9,6.4-8.8,11.4
			c-0.9,5.5,2,9.7,6.3,12.8c3.7,2.7,8.2,4.4,12.5,5.8c4.8,1.6,9.8,2.7,14.8,3.6c10.8,2,21.7,3.2,32.6,4.2c10.6,1,21.2,1.8,31.9,2.5
			c21.7,1.3,43.5,1.7,65.2,1.4c21.5-0.3,43-1.4,64.4-3.4c10.7-1,21.3-2.1,31.9-3.6c4.9-0.7,9.9-1.6,14.7-2.8c4.1-1,8.2-2.4,11.9-4.5
			c4-2.4,7.3-6,8.3-10.7c1.1-4.9,0.1-9.8-3.6-13.4c-3-3-7.1-4.8-11.1-6.2c-4.3-1.6-8.8-2.7-13.3-3.6c-4.9-1-9.8-1.9-14.8-2.8
			c-2.3-0.4-5,0.6-5.5,3.1c-0.5,2.2,0.7,5.1,3.1,5.5c9.2,1.6,18.7,3,27.5,6.1c0.8,0.3,1.6,0.6,2.4,0.9c0.6,0.2-0.6-0.3,0,0
			c0.2,0.1,0.3,0.2,0.5,0.2c0.4,0.2,0.9,0.4,1.3,0.6c0.7,0.4,1.4,0.8,2,1.2c0.2,0.1,0.9,0.7,0.6,0.4c-0.4-0.3,0.3,0.3,0.4,0.4
			c0.2,0.2,0.4,0.4,0.7,0.7c0.1,0.1,0.6,0.8,0.3,0.4c-0.2-0.4,0.1,0.2,0.1,0.2c0.1,0.2,0.2,0.5,0.4,0.7c-0.1-0.1-0.2-0.6-0.1-0.2
			c0.1,0.4,0.2,0.8,0.3,1.2c-0.2-1,0,0.2,0,0.6c0,0.2-0.1,1.4,0,0.8c0.1-0.6-0.1,0.5-0.2,0.7c-0.1,0.4-0.2,0.7-0.3,1.1
			c-0.1,0.2-0.1,0.3-0.2,0.5c0.3-1,0.1-0.2,0,0c-0.2,0.3-0.4,0.7-0.6,1.1c0,0.1-0.4,0.5-0.1,0.1c0.4-0.4-0.2,0.2-0.3,0.3
			c-0.9,0.9-1.2,1.2-2,1.7c-0.8,0.5-1.6,0.9-2.4,1.3c-0.3,0.2-0.7,0.3-1,0.5c-0.8,0.3-0.1,0,0,0c-0.3,0.1-0.6,0.2-0.9,0.3
			c-4,1.5-8.2,2.5-12.3,3.3c-9.7,1.9-19,2.8-29.1,3.8c-20.4,2.1-40.9,3.4-61.4,4c-20.9,0.6-41.8,0.5-62.6-0.4
			c-20.6-0.8-41.2-2.3-61.6-4.8c-9.4-1.1-19.4-2.6-28.8-5.6c-1.1-0.3-2.2-0.7-3.3-1.1c-0.5-0.2-1-0.4-1.5-0.6
			c-0.3-0.1-0.6-0.2-0.8-0.3c0.4,0.2,0.1,0-0.2-0.1c-1.8-0.8-3.5-1.7-5.1-2.8c-0.3-0.2-1-0.8-0.3-0.2c-0.3-0.2-0.6-0.5-0.8-0.7
			c-0.3-0.2-0.5-0.5-0.7-0.8c-0.1-0.1-0.5-0.5,0,0c0.5,0.5,0-0.1-0.1-0.2c-0.3-0.5-0.3-0.6-0.4-0.8c-0.1-0.5-0.1-0.1,0,0
			c0-0.3,0-0.7,0-1c0,0.6,0.2-0.5,0.2-0.7c0.1-0.2,0.2-0.4,0.2-0.6c-0.2,0.6-0.2,0.4,0.1,0c0.2-0.4,0.4-0.7,0.7-1.1
			c0.4-0.7-0.3,0.3,0.3-0.3c0.3-0.4,0.7-0.7,1.1-1c0.1,0,0.8-0.7,0.4-0.4c-0.2,0.2,0.7-0.5,0.7-0.5c0.8-0.5,1.5-1,2.4-1.4
			c0.4-0.2,0.8-0.4,1.2-0.6c0.2-0.1,0.5-0.2,0.8-0.3c-0.4,0.2-0.2,0.1,0.1,0c4.4-1.7,9-2.9,13.5-3.9c4.9-1.1,9.9-2,14.9-2.8
			c2.3-0.4,4.6-0.7,7-1.1c1.2-0.2,2.3-0.3,3.5-0.5c1.4-0.2,1.7-0.2,3.1-0.4c20.3-2.6,40.7-4,61.1-4.6c21-0.6,42.1-0.4,63.1,0.3
			c10.7,0.4,21.4,0.9,32.1,1.6c4.9,0.3,9.9,0.7,14.8,1.2c1.2,0.1,2.3,0.3,3.5,0.4c0,0,0.8,0.1,0.4,0c-0.5-0.1,0.5,0.1,0.6,0.1
			c0.6,0.1,1.3,0.2,1.9,0.3c2.2,0.3,4.4,0.7,6.6,1.2c1.8,0.4,3.7,0.9,5.5,1.4c0.9,0.3,1.7,0.6,2.6,0.9c0.3,0.1,1.3,0.5,0.4,0.2
			c0.4,0.2,0.8,0.4,1.3,0.6c2.1,1,5,0.7,6.2-1.6C1104.4,554.5,1104,551.4,1101.7,550.3L1101.7,550.3z"/>
	</g>
</g>
<line class="st1" x1="849" y1="568.4" x2="848.6" y2="599.1"/>
<line class="st2" x1="1134.7" y1="568.4" x2="1134.8" y2="599.1"/>
<g>
	<g>
		<path d="M844.8,603.7c6.3,6.9,14.3,12,22.8,15.7c9.3,4.1,19.1,6.9,29,8.9c10.1,2,20.3,3.2,30.5,4.3c10.7,1.2,21.4,2.3,32.1,3.5
			c20.7,2.2,41.3,5,62.1,4.2c19.6-0.8,39.1-4,57.9-9.6c18.8-5.6,37.2-13.5,53.9-23.9c2.1-1.3,4.2-2.7,6.3-4.2c2-1.4,2.9-3.9,1.6-6.2
			c-1.1-2-4.2-3-6.2-1.6c-7.9,5.7-16.6,10.3-25.4,14.6c-8.5,4.1-16.7,7.4-25.8,10.4c-9,3-18.2,5.4-27.6,7.3
			c-9.5,1.9-17.9,3-27.6,3.7c-9.5,0.7-19,0.7-28.5,0.2c-10.6-0.6-21.1-1.9-31.6-3c-10.6-1.2-21.2-2.3-31.9-3.5
			c-9.9-1.1-19.6-2-29.1-3.5c-9.7-1.5-19.3-3.6-28.6-6.9c-4.4-1.5-8.2-3.1-12.4-5.3c-2-1-3.9-2.2-5.8-3.4c-0.9-0.6-1.7-1.2-2.6-1.8
			c-0.8-0.6-1.1-0.8-2.1-1.7c-1.7-1.5-3.3-3-4.8-4.7c-1.6-1.8-4.7-1.7-6.4,0C843,599.1,843.2,601.9,844.8,603.7L844.8,603.7z"/>
	</g>
</g>
<line class="st3" x1="855.7" y1="579.3" x2="855.7" y2="592.2"/>
<line class="st4" x1="863.8" y1="582.7" x2="863.8" y2="590"/>
<line class="st4" x1="878.3" y1="586.3" x2="878.3" y2="592.2"/>
<line class="st3" x1="872.1" y1="585.7" x2="872.1" y2="599"/>
<line class="st3" x1="900" y1="590" x2="900" y2="595.4"/>
<line class="st3" x1="932.2" y1="592.3" x2="932.2" y2="597.3"/>
<line class="st4" x1="942.2" y1="593" x2="942.2" y2="595.4"/>
<line class="st4" x1="970.8" y1="594.2" x2="970.8" y2="597.3"/>
<path class="st5" d="M951.5,629.3l69,4.8l26.7-2.4l42.6-10.2l47.6-22.6c16.2,11.3,18.9,19.2,18,24.4c-4.5,25.8-106.6,39.9-194,21.6
	c-32.5-6.8-58.3-17.1-76-25.4"/>
<ellipse class="st6" cx="992.6" cy="569.7" rx="139.2" ry="23.9"/>
<path class="st7" d="M1010.9,553.4c-108.3,0.9-132.1,4.6-132.6,7.9c-0.7,4.2,35.1,9.6,57.5,11.9c24.1,2.4,40.5,1.9,81.3,1.3
	c18.2-0.2,45.3-0.5,78.8-0.7"/>
</svg>
