<?xml version="1.0" encoding="utf-8"?>
<!-- Generator: Adobe Illustrator 25.2.3, SVG Export Plug-In . SVG Version: 6.00 Build 0)  -->
<svg version="1.1" id="Layer_1" xmlns="http://www.w3.org/2000/svg" xmlns:xlink="http://www.w3.org/1999/xlink" x="0px" y="0px"
	 viewBox="0 0 1920 1080" style="enable-background:new 0 0 1920 1080;" xml:space="preserve">
<style type="text/css">
	.st0{fill:none;stroke:#000000;stroke-width:7;stroke-miterlimit:10;}
	.st1{fill:none;stroke:#000000;stroke-width:5;stroke-miterlimit:10;}
	.st2{fill:none;stroke:#000000;stroke-width:2;stroke-miterlimit:10;}
	.st3{fill:none;stroke:#000000;stroke-miterlimit:10;}
	.st4{opacity:0.44;fill:#B3B3B3;}
</style>
<g>
	<g>
		<path d="M1103.33,473.77c-6.65-8.85-16.15-14.16-26.57-17.44c-11.21-3.53-23.11-4.98-34.72-6.49
			c-24.51-3.18-49.35-4.51-74.03-2.82c-24.15,1.65-48.25,6.13-70.89,14.85c-10.77,4.15-21.76,8.92-31.14,15.75
			c-4.85,3.53-9.15,7.54-12.7,12.39c-3.56,4.88-5.96,10.65-7.37,16.51c-2.95,12.29-2.46,25.34,3.56,36.63
			c5.33,9.99,14.14,17.86,23.89,23.42c10.77,6.15,22.81,9.87,34.72,13.1c12.05,3.27,24.3,5.81,36.65,7.65
			c24.86,3.69,50.08,4.65,75.14,2.66c25.03-1.99,49.87-6.76,73.79-14.41c10.43-3.34,20.82-7.34,29.42-14.29
			c4.19-3.39,7.81-7.65,10.29-12.45c2.96-5.71,4.44-11.88,5.25-18.22c1.53-11.99,1.1-25.06-4.9-35.86
			c-5.15-9.27-13.89-15.92-22.96-21.05c-4.41-2.49-8.97-4.68-13.56-6.82c-2.13-1-4.95-0.67-6.16,1.61
			c-1.05,1.99-0.66,5.09,1.61,6.16c4.52,2.11,9.02,4.27,13.37,6.72c2.2,1.24,4.36,2.55,6.45,3.97c0.94,0.64,1.87,1.31,2.78,1.99
			c0.71,0.53,0.25,0.19,0.1,0.07c0.22,0.18,0.44,0.35,0.66,0.53c0.55,0.44,1.09,0.9,1.61,1.36c1.78,1.56,3.46,3.25,4.98,5.07
			c0.11,0.13,1.09,1.4,0.59,0.72c0.37,0.5,0.74,1.01,1.09,1.53c0.67,0.99,1.29,2.01,1.85,3.05c2.48,4.58,3.72,10.25,4.05,15.37
			c0.19,2.88,0.17,5.78,0.03,8.66c-0.07,1.32-0.16,2.64-0.28,3.96c-0.06,0.66-0.13,1.31-0.2,1.97c0.02-0.17-0.19,1.44-0.11,0.87
			c0.05-0.36-0.12,0.76-0.14,0.87c-0.91,5.67-2.36,10.64-5.23,15.26c-0.31,0.5-0.63,0.99-0.97,1.47c-0.2,0.29-0.41,0.58-0.63,0.87
			c0.11-0.15,0.47-0.58-0.08,0.1c-0.81,0.99-1.66,1.95-2.56,2.85c-1.83,1.84-3.38,3.1-4.97,4.22c-2.01,1.41-4.12,2.67-6.29,3.81
			c-1.03,0.54-2.08,1.06-3.14,1.56c-0.6,0.28-1.2,0.55-1.8,0.82c-0.27,0.12-0.54,0.24-0.81,0.35c-0.43,0.18,0.38-0.15-0.35,0.14
			c-10.52,4.24-21.56,7.34-32.57,10.04c-5.85,1.43-11.74,2.7-17.67,3.81c-2.92,0.54-5.85,1.05-8.78,1.51
			c-2.89,0.46-5.94,0.89-8.4,1.21c-23.74,3.03-47.81,3.44-71.64,1.23c-6.13-0.57-11.74-1.25-17.52-2.13
			c-5.87-0.89-11.72-1.94-17.53-3.16c-11.67-2.44-23.32-5.41-34.58-9.36c-5.47-1.92-10.05-3.82-15.19-6.67
			c-2.54-1.41-5.01-2.95-7.36-4.66c-0.24-0.17-0.48-0.35-0.72-0.53c-0.07-0.06-0.8-0.62-0.43-0.33c0.37,0.29-0.35-0.28-0.42-0.34
			c-0.29-0.23-0.58-0.47-0.86-0.71c-0.97-0.82-1.92-1.66-2.84-2.54c-0.92-0.88-1.8-1.79-2.66-2.73c-0.4-0.44-0.8-0.89-1.18-1.34
			c-0.19-0.23-0.38-0.46-0.57-0.69c0,0-0.87-1.09-0.4-0.49c-1.54-1.98-2.91-4.12-4.09-6.34c-0.55-1.04-1.08-2.1-1.53-3.19
			c0.27,0.65-0.01-0.05-0.05-0.15c-0.13-0.35-0.26-0.69-0.39-1.03c-0.22-0.62-0.43-1.25-0.63-1.89c-0.84-2.79-1.28-5.3-1.44-7.97
			c-0.19-3.06-0.06-6.14,0.27-9.19c0.24-2.24,0.81-5.27,1.56-7.98c0.77-2.81,1.58-5.01,2.77-7.36c0.59-1.17,1.25-2.31,1.96-3.41
			c0.33-0.51,0.67-1.02,1.03-1.51c-0.08,0.11,0.8-1.1,0.46-0.64c-0.24,0.32,0.43-0.54,0.49-0.62c1.64-2,3.45-3.84,5.39-5.54
			c0.52-0.45,1.04-0.9,1.57-1.33c0.24-0.19,0.48-0.38,0.72-0.57c0.6-0.48-0.43,0.32,0.18-0.14c1.1-0.83,2.23-1.63,3.39-2.4
			c4.49-2.99,9.29-5.5,14.16-7.81c5.24-2.49,9.73-4.37,15.2-6.38c5.51-2.03,11.12-3.81,16.78-5.37c5.51-1.52,11.08-2.82,16.69-3.92
			c2.81-0.55,5.63-1.05,8.46-1.51c2.97-0.48,5.5-0.84,8.08-1.16c23.14-2.88,46.58-2.79,69.78-0.82c12.53,1.06,24.51,2.54,36.82,4.7
			c4.84,0.85,9.67,1.87,14.38,3.29c5.07,1.52,8.31,2.76,12.82,5.46c1.01,0.61,2.01,1.25,2.97,1.94c0.22,0.16,1.33,1.02,0.75,0.55
			c0.43,0.35,0.86,0.7,1.28,1.06c0.84,0.73,1.64,1.5,2.41,2.3c0.43,0.46,0.86,0.92,1.26,1.4c0.18,0.21,0.36,0.43,0.54,0.65
			c0.51,0.62-0.61-0.83,0.21,0.26c1.41,1.88,3.95,3.04,6.16,1.61C1103.57,478.73,1104.84,475.78,1103.33,473.77L1103.33,473.77z"/>
	</g>
</g>
<line class="st0" x1="849" y1="514.92" x2="848.61" y2="599.07"/>
<line class="st1" x1="1134.69" y1="514.92" x2="1134.83" y2="599.07"/>
<g>
	<g>
		<path d="M844.83,603.68c6.26,6.91,14.34,11.98,22.82,15.71c9.32,4.1,19.07,6.94,29.04,8.92c10.06,2,20.26,3.22,30.45,4.35
			c10.68,1.18,21.37,2.32,32.06,3.48c20.66,2.24,41.3,5.01,62.13,4.2c19.56-0.75,39.09-3.97,57.85-9.56
			c18.81-5.6,37.25-13.5,53.93-23.88c2.14-1.33,4.24-2.73,6.3-4.19c1.98-1.41,2.92-3.93,1.61-6.16c-1.14-1.95-4.17-3.03-6.16-1.61
			c-7.94,5.66-16.6,10.35-25.38,14.58c-8.49,4.09-16.73,7.41-25.83,10.43c-9.03,3-18.24,5.44-27.57,7.3
			c-9.46,1.89-17.95,3.03-27.57,3.71c-9.5,0.67-19.04,0.74-28.54,0.2c-10.56-0.6-21.07-1.88-31.58-3.02
			c-10.62-1.15-21.25-2.3-31.87-3.46c-9.86-1.07-19.59-2.05-29.06-3.55c-9.68-1.54-19.3-3.64-28.56-6.89
			c-4.39-1.55-8.19-3.13-12.36-5.34c-1.99-1.05-3.94-2.19-5.83-3.43c-0.87-0.57-1.73-1.17-2.57-1.79c-0.8-0.58-1.14-0.85-2.11-1.68
			c-1.71-1.45-3.32-3.02-4.83-4.68c-1.63-1.8-4.71-1.66-6.36,0C843.03,599.11,843.19,601.87,844.83,603.68L844.83,603.68z"/>
	</g>
</g>
<line class="st2" x1="855.72" y1="544.81" x2="855.72" y2="580.11"/>
<line class="st3" x1="863.78" y1="554.13" x2="863.78" y2="574.19"/>
<line class="st3" x1="878.33" y1="564.16" x2="878.33" y2="580.11"/>
<line class="st2" x1="872.11" y1="562.46" x2="872.11" y2="598.82"/>
<line class="st2" x1="899.96" y1="574.19" x2="899.96" y2="589"/>
<line class="st2" x1="932.18" y1="580.64" x2="932.18" y2="594.33"/>
<line class="st3" x1="942.15" y1="582.39" x2="942.15" y2="589"/>
<line class="st3" x1="970.82" y1="585.7" x2="970.82" y2="594.33"/>
<path class="st4" d="M951.55,629.35l69.03,4.75l26.72-2.38l42.59-10.15L1137.5,599c16.16,11.35,18.92,19.18,18,24.43
	c-4.51,25.75-106.63,39.87-194,21.61c-32.5-6.79-58.33-17.1-76-25.37"/>
</svg>
